<?xml version="1.0"?>
<svg width="300" height="100" xmlns="http://www.w3.org/2000/svg" xmlns:svg="http://www.w3.org/2000/svg" preserveAspectRatio="xMidYMid meet" version="1.0">
 <title>Pay n&#x27; Go</title>

 <g class="layer">
  <title>Layer 1</title>
  <g id="svg_24">
   <g class="iconsvg-imagesvg" id="svg_3">
    <g id="svg_4">
     <rect class="image-rect" fill="#333" fill-opacity="0" height="85.14" id="svg_5" stroke-width="2" width="60" x="23.53" y="7.43"/>
     <g id="svg_1">
      <svg class="image-svg-svg primary" height="85.14" id="svg_7" width="60" x="23.53" y="7.43">
       <g id="svg_8">
        <svg id="svg_21" viewBox="-0.006536364555358887 -0.002420186996459961 82.02688598632812 116.39006805419922" xmlns="http://www.w3.org/2000/svg">
         <title>Pay n&#x27; Go</title>
         <path d="m81.89,46.7c0,6.67 -0.06,13.34 0,20a4.26,4.26 0 0 1 -2.41,4.22q-17.68,10.26 -35.35,20.6c-3.74,2.17 -7.47,4.36 -11.22,6.51c-2.37,1.36 -3.06,1 -3.08,-1.82l0,-18a3.48,3.48 0 0 1 2,-3.39c8.56,-5 17.07,-10.06 25.66,-15a4.16,4.16 0 0 0 2.43,-4.16c-0.11,-6.08 -0.1,-12.17 0,-18.25a4,4 0 0 0 -2.3,-4c-5.22,-2.94 -10.41,-5.94 -15.51,-9.07c-1.62,-1 -2.83,-0.46 -4.15,0.31l-20.48,12l-14.7,8.57c-1.69,1 -2.49,0.5 -2.49,-1.42l0,-19.24a3.36,3.36 0 0 1 2.07,-3.11c9.2,-5.38 18.37,-10.81 27.56,-16.2c2.58,-1.52 5.22,-2.94 7.78,-4.49a4.48,4.48 0 0 1 5,0q18.64,10.91 37.3,21.79a3.68,3.68 0 0 1 2,3.67c-0.14,6.78 -0.11,13.65 -0.11,20.48z" fill="#0f359c" id="svg_23"/>
         <path d="m0.31,112.23c0,-16.56 0.18,-33.12 -0.12,-49.67c-0.08,-4.12 1.59,-6.37 4.82,-8c10.5,-5.21 20.09,-12 30.48,-17.42c0.8,-0.42 1.49,-1.05 2.26,-1.54c1.38,-0.88 3,-1.62 4.49,-0.9c3.64,1.75 7.35,3.48 10.2,6.51c0.54,0.58 1.07,1.29 0.72,2c-1.07,2.22 -0.6,4.59 -0.88,6.87c-0.32,2.66 -2.74,3.37 -4.62,4.47q-11.38,6.65 -22.84,13.15c-2,1.11 -2.61,2.55 -2.56,4.86c0.17,8.65 0.09,17.31 0,26c0,1.41 -0.3,2.81 -0.4,4.21a4.12,4.12 0 0 1 -2.28,3.31c-5.17,3.34 -10.82,5.85 -15.78,9.53c-0.79,0.59 -1.82,1.12 -2.79,0.5c-1.36,-0.93 -1.09,-2.49 -0.7,-3.88z" fill="#f59916" id="svg_22"/>
        </svg>
       </g>
      </svg>
     </g>
    </g>
   </g>
   <g id="svg_10">
    <g class="tp-name iconsvg-namesvg" data-gra="path-name" id="svg_11" transform="translate(0)">
     <g id="svg_12" transform="translate(43.53, 82.4323) scale(1)">
      <g id="svg_13">
       <path d="m61.33,-89.09q4.15,0 7.02,0.76q2.87,0.77 4.58,2.95q1.72,2.17 1.72,6.22l0,0q0,1.79 -0.54,3.66q-0.54,1.87 -1.33,3.25q-0.8,1.38 -1.41,1.79l0,0q-0.72,0.51 -3.18,0.79q-2.45,0.29 -5.78,0.29l0,0q-1.18,0 -3.64,-0.11l0,0l0,9.73l-9.21,0l0,-29.18q5.38,-0.15 11.77,-0.15l0,0zm3.84,13.15q0.52,-0.66 0.52,-2.66l0,0q0,-2.61 -1.1,-3.69q-1.11,-1.07 -3.82,-1.07l0,0q-0.92,0 -2,0.15l0,0l0,7.78q0.52,0.06 2,0.06l0,0q3.94,0 4.4,-0.57l0,0zm33.59,16.18l-7.27,0l-0.82,-3.23q-2.36,3.84 -6.55,3.84l0,0q-3.43,0 -5.61,-1.92q-2.18,-1.92 -2.18,-5.4l0,0q0,-2.15 1.26,-3.76q1.25,-1.61 3.45,-2.28l0,0q2.87,-0.82 8.86,-0.92l0,0q0,-3.38 -0.31,-3.58l0,0q-0.25,-0.21 -1.63,-0.21l0,0q-0.87,0 -2.41,0.11l0,0q-2.46,0.1 -6.66,0.56l0,0q-0.41,-2.77 -0.61,-5.94l0,0q2.71,-0.56 5.68,-0.95q2.97,-0.38 5.33,-0.38l0,0q4.09,0 6.14,1.36q2.05,1.35 2.66,3.55q0.62,2.2 0.57,5.58l0,0l-0.06,7.53l0.16,6.04zm-11.67,-5.12q1.33,0 2.81,-0.51l0,0l0,-3.79l-0.41,0q-3.79,0 -4.2,0.41l0,0q-0.25,0.26 -0.38,0.77q-0.13,0.51 -0.13,0.97l0,0q0,1.23 0.56,1.69q0.57,0.46 1.75,0.46l0,0zm30.61,-18.43l9.27,0l-6.15,19.71q-1.79,5.68 -3.22,8.27q-1.44,2.58 -2.87,3.61l0,0q-0.82,0.56 -2.58,0.87q-1.77,0.31 -3.82,0.31l0,0q-3.07,0 -4.91,-0.57l0,0q-0.05,-1.23 0.1,-2.99q0.15,-1.77 0.41,-3l0,0q2.15,0.1 4.2,0.1l0,0q1.53,0 2.3,-0.05l0,0q0.77,-1.48 1.43,-3.12l0,0l-3.53,-0.2l-7.88,-22.94l9.26,0l4.1,16.49l0.05,0.97l0.15,0l3.69,-17.46zm41.77,1.49q0.47,0.56 0.7,2.81q0.23,2.25 0.23,6.86l0,0l0,12.39l-8.76,0l0,-12.29l0,-2.1q0,-1.63 -0.25,-2.04l0,0q-0.41,-0.52 -1.9,-0.52l0,0q-0.72,0 -1.07,0.06l0,0q-1.44,0.05 -2.97,0.66l0,0l0,16.23l-8.76,0l0,-23.55l7.12,0l0.97,3.94q3.69,-4.45 8.81,-4.45l0,0q1.84,0 3.45,0.51q1.62,0.51 2.43,1.49l0,0zm5.48,3.43q-0.87,-7.17 -0.82,-12.45l0,0q1.39,-0.2 3.13,-0.2l0,0q1.74,0 3.02,0.2l0,0q0.05,5.64 -0.77,12.45l0,0q-1.54,0.1 -2.31,0.1l0,0q-0.81,0 -2.25,-0.1l0,0zm33.84,2.45l9.01,0l0,14.59q-3.43,1.13 -6.5,1.64q-3.07,0.51 -5.17,0.51l0,0q-6.96,0 -10.9,-3.63q-3.95,-3.64 -3.95,-11.16l0,0q0,-7.68 4.15,-11.5q4.15,-3.81 11.67,-3.81l0,0q3.94,0 9.47,1.18l0,0q0,1.02 -0.2,3.04q-0.21,2.03 -0.41,2.85l0,0l-1.84,-0.06q-3.38,-0.1 -5.28,-0.1l0,0q-5.68,0 -6.19,0.67l0,0q-0.82,0.97 -1.15,3.02q-0.34,2.05 -0.34,3.94l0,0q0,3.43 0.77,5.32q0.77,1.9 2.36,2.67q1.58,0.76 4.3,0.76l0,0l0.2,0l0,-9.93zm24.27,16.85q-6.15,0 -9.19,-2.9q-3.05,-2.89 -3.05,-9.14l0,0q0,-3.43 0.64,-6.01q0.64,-2.59 1.56,-3.61l0,0q1.18,-1.33 4.33,-2.2q3.15,-0.87 5.91,-0.87l0,0q6.61,0 9.42,2.81q2.82,2.82 2.82,9.01l0,0q0,6.66 -3.02,9.78q-3.02,3.13 -9.42,3.13l0,0zm0.15,-5.99q2,0 2.61,-1.41q0.62,-1.41 0.62,-4.99l0,0q0,-2.51 -0.26,-3.87q-0.26,-1.36 -0.95,-2q-0.69,-0.64 -2.12,-0.64l0,0q-2.05,0 -2.36,0.36l0,0q-0.41,0.36 -0.66,2.26q-0.26,1.89 -0.26,3.94l0,0q0,3.48 0.69,4.91q0.7,1.44 2.69,1.44l0,0z" fill="#ffffff" id="svg_14" transform="translate(-2.56, 31.28)"/>
      </g>
     </g>
    </g>
    <g class="tp-slogan iconsvg-slogansvg" data-gra="path-slogan" fill="#333" id="svg_15" transform="translate(25.64, 46.5)">
     <g id="svg_16" transform="translate(43.53, 82.4323) scale(1)">
      <g id="svg_17" transform="translate(0, -82.4323) scale(1)">
       <path d="m50.98,22.81c0.5,0 0.95,-0.09 1.37,-0.28c0.41,-0.2 0.76,-0.47 1.06,-0.83c0.3,-0.35 0.54,-0.78 0.7,-1.29c0.16,-0.51 0.25,-1.08 0.25,-1.71c0,-0.63 -0.09,-1.19 -0.25,-1.69c-0.16,-0.5 -0.4,-0.92 -0.7,-1.27c-0.3,-0.35 -0.65,-0.62 -1.06,-0.8c-0.42,-0.19 -0.87,-0.29 -1.37,-0.29c-0.49,0 -0.95,0.1 -1.36,0.28c-0.41,0.18 -0.76,0.45 -1.06,0.8c-0.3,0.35 -0.53,0.77 -0.69,1.27c-0.16,0.5 -0.25,1.07 -0.25,1.7c0,0.63 0.09,1.2 0.25,1.71c0.16,0.51 0.39,0.94 0.69,1.29c0.3,0.36 0.65,0.63 1.06,0.83c0.41,0.19 0.87,0.28 1.36,0.28zm0,-0.87c-0.35,0 -0.67,-0.08 -0.95,-0.23c-0.28,-0.15 -0.53,-0.37 -0.73,-0.65c-0.21,-0.29 -0.36,-0.63 -0.48,-1.02c-0.11,-0.4 -0.16,-0.85 -0.16,-1.34c0,-0.49 0.05,-0.93 0.16,-1.32c0.12,-0.39 0.27,-0.73 0.48,-1c0.2,-0.27 0.45,-0.48 0.73,-0.63c0.28,-0.15 0.6,-0.22 0.95,-0.22c0.36,0 0.67,0.07 0.96,0.22c0.28,0.15 0.53,0.36 0.73,0.63c0.2,0.27 0.36,0.61 0.47,1c0.12,0.39 0.17,0.83 0.17,1.32c0,0.49 -0.05,0.94 -0.17,1.34c-0.11,0.39 -0.27,0.73 -0.47,1.02c-0.2,0.28 -0.45,0.5 -0.73,0.65c-0.29,0.15 -0.6,0.23 -0.96,0.23zm5.07,-7.14l0,7.87l0.95,0l0,-4.12c0,-0.41 -0.02,-0.83 -0.05,-1.24c-0.02,-0.41 -0.05,-0.82 -0.09,-1.22l0.05,0l0.85,1.62l2.86,4.96l1.03,0l0,-7.87l-0.95,0l0,4.07c0,0.41 0.02,0.83 0.05,1.26c0.02,0.43 0.05,0.84 0.07,1.24l-0.04,0l-0.86,-1.63l-2.84,-4.94l-1.03,0zm11.46,4.82l0,3.05l1.01,0l0,-3.05l2.36,-4.82l-1.04,0l-1.01,2.22c-0.12,0.29 -0.25,0.57 -0.39,0.85c-0.13,0.28 -0.27,0.57 -0.4,0.86l-0.05,0c-0.14,-0.29 -0.27,-0.58 -0.39,-0.86c-0.12,-0.28 -0.24,-0.56 -0.37,-0.85l-1.02,-2.22l-1.07,0l2.37,4.82zm7.17,3.19c0.5,0 0.95,-0.09 1.37,-0.28c0.41,-0.2 0.76,-0.47 1.06,-0.83c0.3,-0.35 0.54,-0.78 0.7,-1.29c0.16,-0.51 0.25,-1.08 0.25,-1.71c0,-0.63 -0.09,-1.19 -0.25,-1.69c-0.16,-0.5 -0.4,-0.92 -0.7,-1.27c-0.3,-0.35 -0.65,-0.62 -1.06,-0.8c-0.42,-0.19 -0.87,-0.29 -1.37,-0.29c-0.49,0 -0.95,0.1 -1.36,0.28c-0.41,0.18 -0.76,0.45 -1.06,0.8c-0.3,0.35 -0.53,0.77 -0.69,1.27c-0.16,0.5 -0.25,1.07 -0.25,1.7c0,0.63 0.09,1.2 0.25,1.71c0.16,0.51 0.39,0.94 0.69,1.29c0.3,0.36 0.65,0.63 1.06,0.83c0.41,0.19 0.87,0.28 1.36,0.28zm0,-0.87c-0.35,0 -0.67,-0.08 -0.95,-0.23c-0.28,-0.15 -0.53,-0.37 -0.73,-0.65c-0.21,-0.29 -0.36,-0.63 -0.48,-1.02c-0.11,-0.4 -0.16,-0.85 -0.16,-1.34c0,-0.49 0.05,-0.93 0.16,-1.32c0.12,-0.39 0.27,-0.73 0.48,-1c0.2,-0.27 0.45,-0.48 0.73,-0.63c0.28,-0.15 0.6,-0.22 0.95,-0.22c0.36,0 0.67,0.07 0.96,0.22c0.28,0.15 0.53,0.36 0.73,0.63c0.2,0.27 0.36,0.61 0.47,1c0.12,0.39 0.17,0.83 0.17,1.32c0,0.49 -0.05,0.94 -0.17,1.34c-0.11,0.39 -0.27,0.73 -0.47,1.02c-0.2,0.28 -0.45,0.5 -0.73,0.65c-0.29,0.15 -0.6,0.23 -0.96,0.23zm5.03,-7.14l0,4.62c0,0.63 0.07,1.16 0.22,1.59c0.14,0.44 0.34,0.79 0.59,1.05c0.25,0.27 0.55,0.46 0.9,0.58c0.35,0.12 0.72,0.17 1.12,0.17c0.4,0 0.78,-0.05 1.12,-0.17c0.34,-0.12 0.64,-0.31 0.89,-0.58c0.26,-0.26 0.45,-0.61 0.6,-1.05c0.14,-0.43 0.21,-0.96 0.21,-1.59l0,-4.62l-0.96,0l0,4.64c0,0.47 -0.04,0.87 -0.14,1.19c-0.1,0.32 -0.23,0.58 -0.4,0.77c-0.16,0.19 -0.36,0.33 -0.58,0.41c-0.23,0.09 -0.47,0.13 -0.74,0.13c-0.25,0 -0.49,-0.04 -0.72,-0.13c-0.22,-0.08 -0.41,-0.22 -0.58,-0.41c-0.16,-0.19 -0.29,-0.45 -0.39,-0.77c-0.09,-0.32 -0.14,-0.72 -0.14,-1.19l0,-4.64l-1,0zm8.77,3.73l0,-2.93l1.32,0c0.62,0 1.09,0.11 1.42,0.31c0.33,0.21 0.49,0.58 0.49,1.1c0,0.51 -0.16,0.89 -0.49,1.14c-0.33,0.25 -0.8,0.38 -1.42,0.38l-1.32,0zm3.33,4.14l1.13,0l-2,-3.43c0.54,-0.14 0.97,-0.39 1.29,-0.76c0.32,-0.37 0.48,-0.86 0.48,-1.47c0,-0.41 -0.07,-0.76 -0.21,-1.04c-0.13,-0.28 -0.32,-0.5 -0.57,-0.68c-0.24,-0.18 -0.53,-0.3 -0.87,-0.38c-0.34,-0.07 -0.71,-0.11 -1.11,-0.11l-2.46,0l0,7.87l0.99,0l0,-3.32l1.43,0l1.9,3.32zm4.27,-7.87l1.67,7.87l1.19,0l1.16,-4.74c0.06,-0.3 0.13,-0.6 0.2,-0.89c0.07,-0.3 0.13,-0.59 0.2,-0.9l0.04,0c0.07,0.31 0.13,0.6 0.19,0.9c0.06,0.29 0.13,0.59 0.2,0.89l1.19,4.74l1.2,0l1.63,-7.87l-0.96,0l-0.83,4.28c-0.08,0.43 -0.16,0.85 -0.23,1.27c-0.07,0.42 -0.14,0.84 -0.21,1.28l-0.05,0c-0.1,-0.44 -0.19,-0.86 -0.29,-1.29c-0.1,-0.42 -0.19,-0.84 -0.29,-1.26l-1.09,-4.28l-0.91,0l-1.09,4.28c-0.09,0.43 -0.18,0.85 -0.28,1.27c-0.1,0.42 -0.19,0.84 -0.28,1.28l-0.04,0c-0.08,-0.44 -0.15,-0.86 -0.23,-1.28c-0.08,-0.41 -0.16,-0.84 -0.23,-1.27l-0.83,-4.28l-1.03,0zm13.58,4.67l-2.36,0l0.37,-1.2c0.15,-0.44 0.28,-0.88 0.41,-1.32c0.13,-0.43 0.25,-0.88 0.37,-1.34l0.05,0c0.13,0.46 0.26,0.91 0.38,1.34c0.13,0.44 0.27,0.88 0.41,1.32l0.37,1.2zm0.26,0.8l0.74,2.4l1.07,0l-2.67,-7.87l-1.12,0l-2.67,7.87l1.02,0l0.76,-2.4l2.87,0zm4.03,-0.65l0,3.05l1.01,0l0,-3.05l2.36,-4.82l-1.04,0l-1.01,2.22c-0.12,0.29 -0.25,0.57 -0.39,0.85c-0.13,0.28 -0.27,0.57 -0.4,0.86l-0.05,0c-0.14,-0.29 -0.27,-0.58 -0.39,-0.86c-0.12,-0.28 -0.24,-0.56 -0.37,-0.85l-1.02,-2.22l-1.07,0l2.37,4.82zm8.49,-3.98l0,7.03l1.01,0l0,-7.03l2.38,0l0,-0.84l-5.76,0l0,0.84l2.37,0zm7.42,7.17c0.5,0 0.95,-0.09 1.36,-0.28c0.41,-0.2 0.77,-0.47 1.07,-0.83c0.3,-0.35 0.53,-0.78 0.7,-1.29c0.16,-0.51 0.24,-1.08 0.24,-1.71c0,-0.63 -0.08,-1.19 -0.24,-1.69c-0.17,-0.5 -0.4,-0.92 -0.7,-1.27c-0.3,-0.35 -0.66,-0.62 -1.07,-0.8c-0.41,-0.19 -0.86,-0.29 -1.36,-0.29c-0.5,0 -0.95,0.1 -1.36,0.28c-0.41,0.18 -0.77,0.45 -1.06,0.8c-0.3,0.35 -0.53,0.77 -0.69,1.27c-0.17,0.5 -0.25,1.07 -0.25,1.7c0,0.63 0.08,1.2 0.25,1.71c0.16,0.51 0.39,0.94 0.69,1.29c0.29,0.36 0.65,0.63 1.06,0.83c0.41,0.19 0.86,0.28 1.36,0.28zm0,-0.87c-0.35,0 -0.67,-0.08 -0.95,-0.23c-0.29,-0.15 -0.53,-0.37 -0.74,-0.65c-0.2,-0.29 -0.36,-0.63 -0.47,-1.02c-0.11,-0.4 -0.17,-0.85 -0.17,-1.34c0,-0.49 0.06,-0.93 0.17,-1.32c0.11,-0.39 0.27,-0.73 0.47,-1c0.21,-0.27 0.45,-0.48 0.74,-0.63c0.28,-0.15 0.6,-0.22 0.95,-0.22c0.35,0 0.67,0.07 0.95,0.22c0.29,0.15 0.53,0.36 0.74,0.63c0.2,0.27 0.36,0.61 0.47,1c0.11,0.39 0.17,0.83 0.17,1.32c0,0.49 -0.06,0.94 -0.17,1.34c-0.11,0.39 -0.27,0.73 -0.47,1.02c-0.21,0.28 -0.45,0.5 -0.74,0.65c-0.28,0.15 -0.6,0.23 -0.95,0.23zm7.51,-0.99l-0.6,0.7c0.35,0.36 0.75,0.64 1.23,0.85c0.47,0.21 0.98,0.31 1.53,0.31c0.42,0 0.79,-0.05 1.12,-0.17c0.33,-0.12 0.61,-0.28 0.84,-0.48c0.23,-0.2 0.41,-0.44 0.53,-0.71c0.13,-0.28 0.19,-0.57 0.19,-0.88c0,-0.29 -0.04,-0.54 -0.13,-0.76c-0.08,-0.22 -0.2,-0.41 -0.34,-0.58c-0.14,-0.16 -0.32,-0.31 -0.52,-0.43c-0.2,-0.12 -0.41,-0.23 -0.63,-0.33l-1.12,-0.48c-0.16,-0.06 -0.31,-0.13 -0.47,-0.21c-0.15,-0.08 -0.29,-0.16 -0.42,-0.26c-0.12,-0.1 -0.23,-0.22 -0.3,-0.35c-0.08,-0.13 -0.12,-0.3 -0.12,-0.49c0,-0.36 0.14,-0.64 0.41,-0.84c0.26,-0.21 0.62,-0.31 1.06,-0.31c0.37,0 0.7,0.07 0.99,0.2c0.29,0.13 0.56,0.31 0.8,0.54l0.54,-0.64c-0.28,-0.29 -0.62,-0.53 -1.02,-0.71c-0.4,-0.18 -0.84,-0.27 -1.31,-0.27c-0.36,0 -0.69,0.06 -0.99,0.16c-0.3,0.1 -0.56,0.25 -0.78,0.44c-0.22,0.19 -0.39,0.41 -0.52,0.66c-0.12,0.26 -0.18,0.54 -0.18,0.83c0,0.29 0.04,0.54 0.14,0.76c0.1,0.22 0.22,0.41 0.37,0.57c0.15,0.16 0.33,0.3 0.52,0.41c0.19,0.11 0.38,0.21 0.56,0.29l1.13,0.49c0.18,0.09 0.36,0.17 0.52,0.25c0.16,0.08 0.29,0.17 0.41,0.27c0.12,0.1 0.21,0.22 0.28,0.36c0.06,0.14 0.1,0.31 0.1,0.51c0,0.39 -0.15,0.7 -0.43,0.93c-0.29,0.24 -0.7,0.36 -1.22,0.36c-0.4,0 -0.8,-0.09 -1.18,-0.27c-0.38,-0.18 -0.71,-0.42 -0.99,-0.72zm6.35,-6.15l0,4.62c0,0.63 0.07,1.16 0.22,1.59c0.14,0.44 0.34,0.79 0.59,1.05c0.25,0.27 0.55,0.46 0.9,0.58c0.35,0.12 0.72,0.17 1.12,0.17c0.4,0 0.77,-0.05 1.12,-0.17c0.34,-0.12 0.64,-0.31 0.89,-0.58c0.25,-0.26 0.45,-0.61 0.6,-1.05c0.14,-0.43 0.21,-0.96 0.21,-1.59l0,-4.62l-0.96,0l0,4.64c0,0.47 -0.05,0.87 -0.14,1.19c-0.1,0.32 -0.23,0.58 -0.4,0.77c-0.17,0.19 -0.36,0.33 -0.59,0.41c-0.22,0.09 -0.46,0.13 -0.73,0.13c-0.25,0 -0.49,-0.04 -0.72,-0.13c-0.22,-0.08 -0.42,-0.22 -0.58,-0.41c-0.16,-0.19 -0.29,-0.45 -0.39,-0.77c-0.1,-0.32 -0.14,-0.72 -0.14,-1.19l0,-4.64l-1,0zm7.32,3.93c0,0.64 0.09,1.22 0.26,1.73c0.17,0.5 0.41,0.93 0.72,1.28c0.31,0.35 0.67,0.61 1.09,0.8c0.42,0.18 0.88,0.27 1.37,0.27c0.51,0 0.96,-0.1 1.35,-0.3c0.39,-0.2 0.74,-0.48 1.05,-0.84l-0.56,-0.61c-0.26,0.28 -0.53,0.5 -0.81,0.65c-0.28,0.15 -0.62,0.23 -1,0.23c-0.38,0 -0.72,-0.08 -1.02,-0.23c-0.3,-0.15 -0.55,-0.37 -0.76,-0.65c-0.21,-0.28 -0.37,-0.62 -0.48,-1.01c-0.12,-0.4 -0.18,-0.84 -0.18,-1.34c0,-0.49 0.06,-0.93 0.18,-1.32c0.12,-0.39 0.29,-0.73 0.51,-1c0.21,-0.28 0.47,-0.49 0.78,-0.64c0.3,-0.15 0.64,-0.22 1.02,-0.22c0.33,0 0.63,0.07 0.88,0.2c0.25,0.13 0.48,0.31 0.69,0.53l0.56,-0.63c-0.23,-0.26 -0.53,-0.49 -0.89,-0.68c-0.36,-0.2 -0.78,-0.3 -1.26,-0.3c-0.5,0 -0.97,0.1 -1.39,0.29c-0.43,0.18 -0.8,0.45 -1.11,0.81c-0.32,0.35 -0.56,0.78 -0.74,1.28c-0.17,0.5 -0.26,1.07 -0.26,1.7zm6.5,0c0,0.64 0.09,1.22 0.26,1.73c0.17,0.5 0.41,0.93 0.72,1.28c0.31,0.35 0.67,0.61 1.09,0.8c0.42,0.18 0.88,0.27 1.38,0.27c0.5,0 0.95,-0.1 1.34,-0.3c0.39,-0.2 0.75,-0.48 1.06,-0.84l-0.57,-0.61c-0.25,0.28 -0.52,0.5 -0.81,0.65c-0.28,0.15 -0.61,0.23 -1,0.23c-0.37,0 -0.71,-0.08 -1.01,-0.23c-0.3,-0.15 -0.56,-0.37 -0.76,-0.65c-0.21,-0.28 -0.37,-0.62 -0.49,-1.01c-0.12,-0.4 -0.17,-0.84 -0.17,-1.34c0,-0.49 0.06,-0.93 0.18,-1.32c0.12,-0.39 0.28,-0.73 0.5,-1c0.22,-0.28 0.48,-0.49 0.78,-0.64c0.3,-0.15 0.64,-0.22 1.02,-0.22c0.34,0 0.63,0.07 0.88,0.2c0.25,0.13 0.48,0.31 0.69,0.53l0.57,-0.63c-0.24,-0.26 -0.53,-0.49 -0.89,-0.68c-0.36,-0.2 -0.78,-0.3 -1.26,-0.3c-0.51,0 -0.97,0.1 -1.4,0.29c-0.43,0.18 -0.8,0.45 -1.11,0.81c-0.31,0.35 -0.56,0.78 -0.73,1.28c-0.18,0.5 -0.27,1.07 -0.27,1.7zm7.31,-3.93l0,7.87l4.66,0l0,-0.85l-3.66,0l0,-2.86l2.99,0l0,-0.85l-2.99,0l0,-2.47l3.54,0l0,-0.84l-4.54,0zm6.35,6.15l-0.6,0.7c0.34,0.36 0.75,0.64 1.22,0.85c0.48,0.21 0.99,0.31 1.54,0.31c0.42,0 0.79,-0.05 1.12,-0.17c0.32,-0.12 0.6,-0.28 0.84,-0.48c0.23,-0.2 0.41,-0.44 0.53,-0.71c0.12,-0.28 0.19,-0.57 0.19,-0.88c0,-0.29 -0.05,-0.54 -0.13,-0.76c-0.08,-0.22 -0.2,-0.41 -0.34,-0.58c-0.15,-0.16 -0.32,-0.31 -0.52,-0.43c-0.2,-0.12 -0.41,-0.23 -0.63,-0.33l-1.12,-0.48c-0.16,-0.06 -0.32,-0.13 -0.47,-0.21c-0.15,-0.08 -0.29,-0.16 -0.42,-0.26c-0.13,-0.1 -0.23,-0.22 -0.3,-0.35c-0.08,-0.13 -0.12,-0.3 -0.12,-0.49c0,-0.36 0.14,-0.64 0.4,-0.84c0.27,-0.21 0.63,-0.31 1.07,-0.31c0.36,0 0.69,0.07 0.99,0.2c0.29,0.13 0.55,0.31 0.79,0.54l0.54,-0.64c-0.28,-0.29 -0.62,-0.53 -1.02,-0.71c-0.4,-0.18 -0.83,-0.27 -1.3,-0.27c-0.36,0 -0.69,0.06 -0.99,0.16c-0.3,0.1 -0.56,0.25 -0.78,0.44c-0.22,0.19 -0.4,0.41 -0.52,0.66c-0.12,0.26 -0.19,0.54 -0.19,0.83c0,0.29 0.05,0.54 0.15,0.76c0.09,0.22 0.22,0.41 0.37,0.57c0.15,0.16 0.32,0.3 0.52,0.41c0.19,0.11 0.38,0.21 0.56,0.29l1.13,0.49c0.18,0.09 0.35,0.17 0.51,0.25c0.16,0.08 0.3,0.17 0.42,0.27c0.11,0.1 0.21,0.22 0.27,0.36c0.07,0.14 0.11,0.31 0.11,0.51c0,0.39 -0.15,0.7 -0.44,0.93c-0.28,0.24 -0.69,0.36 -1.21,0.36c-0.41,0 -0.8,-0.09 -1.18,-0.27c-0.38,-0.18 -0.71,-0.42 -0.99,-0.72zm6.24,0l-0.6,0.7c0.34,0.36 0.75,0.64 1.22,0.85c0.48,0.21 0.99,0.31 1.54,0.31c0.42,0 0.79,-0.05 1.12,-0.17c0.32,-0.12 0.6,-0.28 0.84,-0.48c0.23,-0.2 0.41,-0.44 0.53,-0.71c0.12,-0.28 0.19,-0.57 0.19,-0.88c0,-0.29 -0.05,-0.54 -0.13,-0.76c-0.08,-0.22 -0.2,-0.41 -0.34,-0.58c-0.15,-0.16 -0.32,-0.31 -0.52,-0.43c-0.2,-0.12 -0.41,-0.23 -0.63,-0.33l-1.12,-0.48c-0.16,-0.06 -0.32,-0.13 -0.47,-0.21c-0.15,-0.08 -0.29,-0.16 -0.42,-0.26c-0.13,-0.1 -0.23,-0.22 -0.3,-0.35c-0.08,-0.13 -0.12,-0.3 -0.12,-0.49c0,-0.36 0.14,-0.64 0.4,-0.84c0.27,-0.21 0.63,-0.31 1.07,-0.31c0.36,0 0.69,0.07 0.99,0.2c0.29,0.13 0.55,0.31 0.79,0.54l0.54,-0.64c-0.28,-0.29 -0.62,-0.53 -1.02,-0.71c-0.4,-0.18 -0.83,-0.27 -1.3,-0.27c-0.36,0 -0.69,0.06 -0.99,0.16c-0.3,0.1 -0.56,0.25 -0.78,0.44c-0.22,0.19 -0.4,0.41 -0.52,0.66c-0.12,0.26 -0.19,0.54 -0.19,0.83c0,0.29 0.05,0.54 0.15,0.76c0.09,0.22 0.22,0.41 0.37,0.57c0.15,0.16 0.32,0.3 0.52,0.41c0.19,0.11 0.38,0.21 0.56,0.29l1.13,0.49c0.18,0.09 0.35,0.17 0.51,0.25c0.16,0.08 0.3,0.17 0.42,0.27c0.11,0.1 0.21,0.22 0.27,0.36c0.07,0.14 0.11,0.31 0.11,0.51c0,0.39 -0.15,0.7 -0.44,0.93c-0.28,0.24 -0.69,0.36 -1.21,0.36c-0.41,0 -0.8,-0.09 -1.18,-0.27c-0.38,-0.18 -0.71,-0.42 -0.99,-0.72z" fill="#ffffff" id="svg_18" transform="translate(-0.624, 8.016)"/>
      </g>
     </g>
    </g>
   </g>
  </g>
 </g>
</svg>