<?xml version="1.0"?>
<svg width="300" height="100" xmlns="http://www.w3.org/2000/svg" xmlns:svg="http://www.w3.org/2000/svg" preserveAspectRatio="xMidYMid meet" version="1.0">
 <title>Pay n&#x27; Go</title>

 <g class="layer">
  <title>Layer 1</title>
  <g class="icon-text-wrapper icon-svg-group iconsvg layer" fill="#333" id="svg_27">
   <g class="iconsvg-imagesvg" id="svg_3" transform="translate(0)">
    <g id="svg_4">
     <rect class="image-rect" fill="#333" fill-opacity="0" height="85.14" id="svg_5" stroke-width="2" width="60" x="23.53" y="7.43"/>
     <g id="svg_1">
      <svg class="image-svg-svg primary" height="85.14" id="svg_2" width="60" x="23.53" y="7.43">
       <g id="svg_6">
        <svg id="svg_15" viewBox="-0.006536364555358887 -0.002420186996459961 82.02688598632812 116.39006805419922" xmlns="http://www.w3.org/2000/svg">
         <title>Pay n&#x27; Go</title>
         <path d="m81.89,46.7c0,6.67 -0.06,13.34 0,20a4.26,4.26 0 0 1 -2.41,4.22q-17.68,10.26 -35.35,20.6c-3.74,2.17 -7.47,4.36 -11.22,6.51c-2.37,1.36 -3.06,1 -3.08,-1.82l0,-18a3.48,3.48 0 0 1 2,-3.39c8.56,-5 17.07,-10.06 25.66,-15a4.16,4.16 0 0 0 2.43,-4.16c-0.11,-6.08 -0.1,-12.17 0,-18.25a4,4 0 0 0 -2.3,-4c-5.22,-2.94 -10.41,-5.94 -15.51,-9.07c-1.62,-1 -2.83,-0.46 -4.15,0.31l-20.48,12l-14.7,8.57c-1.69,1 -2.49,0.5 -2.49,-1.42l0,-19.24a3.36,3.36 0 0 1 2.07,-3.11c9.2,-5.38 18.37,-10.81 27.56,-16.2c2.58,-1.52 5.22,-2.94 7.78,-4.49a4.48,4.48 0 0 1 5,0q18.64,10.91 37.3,21.79a3.68,3.68 0 0 1 2,3.67c-0.14,6.78 -0.11,13.65 -0.11,20.48z" fill="#0f359c" id="svg_17"/>
         <path d="m0.31,112.23c0,-16.56 0.18,-33.12 -0.12,-49.67c-0.08,-4.12 1.59,-6.37 4.82,-8c10.5,-5.21 20.09,-12 30.48,-17.42c0.8,-0.42 1.49,-1.05 2.26,-1.54c1.38,-0.88 3,-1.62 4.49,-0.9c3.64,1.75 7.35,3.48 10.2,6.51c0.54,0.58 1.07,1.29 0.72,2c-1.07,2.22 -0.6,4.59 -0.88,6.87c-0.32,2.66 -2.74,3.37 -4.62,4.47q-11.38,6.65 -22.84,13.15c-2,1.11 -2.61,2.55 -2.56,4.86c0.17,8.65 0.09,17.31 0,26c0,1.41 -0.3,2.81 -0.4,4.21a4.12,4.12 0 0 1 -2.28,3.31c-5.17,3.34 -10.82,5.85 -15.78,9.53c-0.79,0.59 -1.82,1.12 -2.79,0.5c-1.36,-0.93 -1.09,-2.49 -0.7,-3.88z" fill="#f59916" id="svg_16"/>
        </svg>
       </g>
      </svg>
     </g>
    </g>
   </g>
   <g id="svg_10" transform="translate(67, 15.2397)">
    <g class="tp-name iconsvg-namesvg" data-gra="path-name" id="svg_11" transform="translate(0)">
     <g id="svg_12" transform="translate(43.53, 82.4323) scale(1)">
      <g id="svg_13">
       <path d="m-5.67,-104.33q4.15,0 7.02,0.76q2.87,0.77 4.58,2.95q1.72,2.17 1.72,6.22l0,0q0,1.79 -0.54,3.66q-0.54,1.87 -1.33,3.25q-0.8,1.38 -1.41,1.79l0,0q-0.72,0.51 -3.18,0.79q-2.45,0.29 -5.78,0.29l0,0q-1.18,0 -3.64,-0.11l0,0l0,9.73l-9.21,0l0,-29.18q5.38,-0.15 11.77,-0.15l0,0zm3.84,13.15q0.52,-0.66 0.52,-2.66l0,0q0,-2.61 -1.1,-3.69q-1.11,-1.07 -3.82,-1.07l0,0q-0.92,0 -2,0.15l0,0l0,7.78q0.52,0.06 2,0.06l0,0q3.94,0 4.4,-0.57l0,0zm33.59,16.18l-7.27,0l-0.82,-3.23q-2.36,3.84 -6.55,3.84l0,0q-3.43,0 -5.61,-1.92q-2.18,-1.92 -2.18,-5.4l0,0q0,-2.15 1.26,-3.76q1.25,-1.61 3.45,-2.28l0,0q2.87,-0.82 8.86,-0.92l0,0q0,-3.38 -0.31,-3.58l0,0q-0.25,-0.21 -1.63,-0.21l0,0q-0.87,0 -2.41,0.11l0,0q-2.46,0.1 -6.66,0.56l0,0q-0.41,-2.77 -0.61,-5.94l0,0q2.71,-0.56 5.68,-0.95q2.97,-0.38 5.33,-0.38l0,0q4.09,0 6.14,1.36q2.05,1.35 2.66,3.55q0.62,2.2 0.57,5.58l0,0l-0.06,7.53l0.16,6.04zm-11.67,-5.12q1.33,0 2.81,-0.51l0,0l0,-3.79l-0.41,0q-3.79,0 -4.2,0.41l0,0q-0.25,0.26 -0.38,0.77q-0.13,0.51 -0.13,0.97l0,0q0,1.23 0.56,1.69q0.57,0.46 1.75,0.46l0,0zm30.61,-18.43l9.27,0l-6.15,19.71q-1.79,5.68 -3.22,8.27q-1.44,2.58 -2.87,3.61l0,0q-0.82,0.56 -2.58,0.87q-1.77,0.31 -3.82,0.31l0,0q-3.07,0 -4.91,-0.57l0,0q-0.05,-1.23 0.1,-2.99q0.15,-1.77 0.41,-3l0,0q2.15,0.1 4.2,0.1l0,0q1.53,0 2.3,-0.05l0,0q0.77,-1.48 1.43,-3.12l0,0l-3.53,-0.2l-7.88,-22.94l9.26,0l4.1,16.49l0.05,0.97l0.15,0l3.69,-17.46zm41.77,1.49q0.47,0.56 0.7,2.81q0.23,2.25 0.23,6.86l0,0l0,12.39l-8.76,0l0,-12.29l0,-2.1q0,-1.63 -0.25,-2.04l0,0q-0.41,-0.52 -1.9,-0.52l0,0q-0.72,0 -1.07,0.06l0,0q-1.44,0.05 -2.97,0.66l0,0l0,16.23l-8.76,0l0,-23.55l7.12,0l0.97,3.94q3.69,-4.45 8.81,-4.45l0,0q1.84,0 3.45,0.51q1.62,0.51 2.43,1.49l0,0zm5.48,3.43q-0.87,-7.17 -0.82,-12.45l0,0q1.39,-0.2 3.13,-0.2l0,0q1.74,0 3.02,0.2l0,0q0.05,5.64 -0.77,12.45l0,0q-1.54,0.1 -2.31,0.1l0,0q-0.81,0 -2.25,-0.1l0,0zm33.84,2.45l9.01,0l0,14.59q-3.43,1.13 -6.5,1.64q-3.07,0.51 -5.17,0.51l0,0q-6.96,0 -10.9,-3.63q-3.95,-3.64 -3.95,-11.16l0,0q0,-7.68 4.15,-11.5q4.15,-3.81 11.67,-3.81l0,0q3.94,0 9.47,1.18l0,0q0,1.02 -0.2,3.04q-0.21,2.03 -0.41,2.85l0,0l-1.84,-0.06q-3.38,-0.1 -5.28,-0.1l0,0q-5.68,0 -6.19,0.67l0,0q-0.82,0.97 -1.15,3.02q-0.34,2.05 -0.34,3.94l0,0q0,3.43 0.77,5.32q0.77,1.9 2.36,2.67q1.58,0.76 4.3,0.76l0,0l0.2,0l0,-9.93zm24.27,16.85q-6.15,0 -9.19,-2.9q-3.05,-2.89 -3.05,-9.14l0,0q0,-3.43 0.64,-6.01q0.64,-2.59 1.56,-3.61l0,0q1.18,-1.33 4.33,-2.2q3.15,-0.87 5.91,-0.87l0,0q6.61,0 9.42,2.81q2.82,2.82 2.82,9.01l0,0q0,6.66 -3.02,9.78q-3.02,3.13 -9.42,3.13l0,0zm0.15,-5.99q2,0 2.61,-1.41q0.62,-1.41 0.62,-4.99l0,0q0,-2.51 -0.26,-3.87q-0.26,-1.36 -0.95,-2q-0.69,-0.64 -2.12,-0.64l0,0q-2.05,0 -2.36,0.36l0,0q-0.41,0.36 -0.66,2.26q-0.26,1.89 -0.26,3.94l0,0q0,3.48 0.69,4.91q0.7,1.44 2.69,1.44l0,0z" id="svg_14" transform="translate(-2.56, 40.28)"/>
      </g>
     </g>
    </g>
   </g>
  </g>
 </g>
</svg>